<?xml version="1.0" encoding="UTF-8"?>
<!DOCTYPE svg PUBLIC "-//W3C//DTD SVG 1.1//EN" "http://www.w3.org/Graphics/SVG/1.1/DTD/svg11.dtd">
<!-- Creator: CorelDRAW -->
<svg xmlns="http://www.w3.org/2000/svg" xml:space="preserve" width="512px" height="512px" version="1.1" style="shape-rendering:geometricPrecision; text-rendering:geometricPrecision; image-rendering:optimizeQuality; fill-rule:evenodd; clip-rule:evenodd"
viewBox="0 0 512 512"
 xmlns:xlink="http://www.w3.org/1999/xlink">
 <defs>
  <style type="text/css">
   <![CDATA[
    .fil1 {fill:#FE9901}
    .fil0 {fill:#FEE45A}
   ]]>
  </style>
 </defs>
 <g id="Layer_x0020_1">
  <metadata id="CorelCorpID_0Corel-Layer"/>
  <path class="fil0" d="M83 457l-4 -8c-38,-81 -48,-94 -50,-96l-1 -1 -1 -2 -27 -49 11 -8c3,2 6,5 10,9 21,17 58,49 83,50l7 -134 14 -2 30 72c12,13 22,19 30,19 8,0 16,-6 25,-18l0 0c11,-14 29,-62 29,-80 0,-25 -32,-36 -49,-41 -4,-2 -8,-3 -10,-4l-11 -7 12 -6c9,-4 17,-6 24,-8 12,-3 19,-5 27,-18l0 0c4,-6 7,-25 10,-39 4,-22 5,-29 12,-31 0,0 1,0 2,0 1,0 1,0 2,0 6,1 7,7 8,13 1,4 2,10 3,16 2,13 6,34 10,40 8,14 16,16 28,19 7,2 15,4 24,8l13 6 -13 7c-2,1 -5,2 -9,3 -18,6 -50,17 -50,42 0,18 18,66 29,79l0 1c9,11 17,17 25,18 8,0 18,-5 31,-19l29 -72 14 2 7 134c24,-1 59,-30 81,-49 5,-4 10,-8 14,-11l10 9 -29 51 -1 1c-6,5 -29,52 -40,75 -5,11 -9,20 -11,24l-3 5 -12 -4c-160,-42 -160,-42 -320,0l-13 4z"/>
  <path class="fil1" d="M64 417c-3,-5 -5,-9 -7,-13l15 -4c179,-42 192,-42 368,0 2,0 9,2 14,4 -2,4 -4,8 -6,12 -2,5 -4,9 -6,12 -5,11 -9,20 -11,24l-3 5 -12 -4c-160,-42 -160,-42 -320,0l-13 4 -4 -8c-6,-12 -11,-23 -15,-32z"/>
 </g>
</svg>
