<svg width="512" height="512" viewBox="0 0 512 512" fill="none" xmlns="http://www.w3.org/2000/svg">
<g clip-path="url(#clip0_5_49)">
<circle cx="256" cy="256" r="256" fill="#F8DF5B"/>
<rect x="56" y="106" width="400" height="300" rx="75" fill="white"/>
<rect x="81" y="131" width="350" height="250" rx="75" fill="#F8DF5B"/>
<line x1="229.5" y1="323.5" x2="229.5" y2="306.5" stroke="white" stroke-width="3" stroke-linecap="round"/>
<line x1="238.591" y1="333.5" x2="238.591" y2="296.5" stroke="white" stroke-width="3" stroke-linecap="round"/>
<line x1="247.682" y1="328.5" x2="247.682" y2="301.5" stroke="white" stroke-width="3" stroke-linecap="round"/>
<line x1="256.773" y1="338.5" x2="256.773" y2="291.5" stroke="white" stroke-width="3" stroke-linecap="round"/>
<line x1="1.5" y1="-1.5" x2="18.5" y2="-1.5" transform="matrix(0 -1 -1 0 281 325)" stroke="white" stroke-width="3" stroke-linecap="round"/>
<line x1="1.5" y1="-1.5" x2="38.5" y2="-1.5" transform="matrix(0 -1 -1 0 271.909 335)" stroke="white" stroke-width="3" stroke-linecap="round"/>
<line x1="1.5" y1="-1.5" x2="28.5" y2="-1.5" transform="matrix(0 -1 -1 0 262.818 330)" stroke="white" stroke-width="3" stroke-linecap="round"/>
<path d="M163.465 197.355C169.997 190.89 173.264 187.657 177.088 186.624C179.65 185.932 182.35 185.932 184.912 186.624C188.736 187.657 192.003 190.89 198.535 197.355C212.902 211.575 220.086 218.685 220.142 224.863C220.179 228.909 218.58 232.799 215.707 235.649C211.321 240 201.214 240 181 240C160.786 240 150.679 240 146.293 235.649C143.42 232.799 141.821 228.909 141.858 224.863C141.914 218.685 149.098 211.575 163.465 197.355Z" fill="white"/>
<path d="M313.465 197.355C319.997 190.89 323.264 187.657 327.088 186.624C329.65 185.932 332.35 185.932 334.912 186.624C338.736 187.657 342.003 190.89 348.535 197.355C362.902 211.575 370.086 218.685 370.142 224.863C370.179 228.909 368.58 232.799 365.707 235.649C361.321 240 351.214 240 331 240C310.786 240 300.679 240 296.293 235.649C293.42 232.799 291.821 228.909 291.858 224.863C291.914 218.685 299.098 211.575 313.465 197.355Z" fill="white"/>
<path d="M318.318 230.983C321.015 228.647 322.364 227.479 323.734 226.72C328.255 224.217 333.745 224.217 338.266 226.72C339.636 227.479 340.985 228.647 343.682 230.983C350.944 237.272 354.575 240.417 355.869 242.766C360.292 250.803 356.531 260.892 347.926 264.071C345.41 265 340.607 265 331 265C321.393 265 316.59 265 314.074 264.071C305.469 260.892 301.708 250.803 306.131 242.766C307.425 240.417 311.056 237.272 318.318 230.983Z" fill="#F8DF5B"/>
<path d="M168.318 230.983C171.015 228.647 172.364 227.479 173.734 226.72C178.255 224.217 183.745 224.217 188.266 226.72C189.636 227.479 190.985 228.647 193.682 230.983C200.944 237.272 204.575 240.417 205.869 242.766C210.292 250.803 206.531 260.892 197.926 264.071C195.41 265 190.607 265 181 265C171.393 265 166.59 265 164.074 264.071C155.469 260.892 151.708 250.803 156.131 242.766C157.425 240.417 161.056 237.272 168.318 230.983Z" fill="#F8DF5B"/>
<rect x="423" y="365" width="33" height="41" rx="16.5" fill="#F8DF5B"/>
<rect x="56" y="365" width="33" height="41" rx="16.5" fill="#F8DF5B"/>
<rect x="56" y="106" width="33" height="41" rx="16.5" fill="#F8DF5B"/>
<rect x="423" y="106" width="33" height="41" rx="16.5" fill="#F8DF5B"/>
</g>
<defs>
<clipPath id="clip0_5_49">
<rect width="512" height="512" rx="100" fill="white"/>
</clipPath>
</defs>
</svg>
